<svg xmlns="http://www.w3.org/2000/svg" xmlns:xlink="http://www.w3.org/1999/xlink" width="1080" zoomAndPan="magnify" viewBox="0 0 810 809.999993" height="1080" preserveAspectRatio="xMidYMid meet" version="1.0"><defs><clipPath id="174d7b9fd3"><path d="M 62.398438 81 L 747.898438 81 L 747.898438 766.5 L 62.398438 766.5 Z M 62.398438 81 " clip-rule="nonzero"/></clipPath><clipPath id="dc7c447e78"><path d="M 280 194.164062 L 587.695312 194.164062 L 587.695312 485 L 280 485 Z M 280 194.164062 " clip-rule="nonzero"/></clipPath></defs><rect x="-81" width="972" fill="#ffffff" y="-80.999999" height="971.999992" fill-opacity="1"/><rect x="-81" width="972" fill="#ffffff" y="-80.999999" height="971.999992" fill-opacity="1"/><g clip-path="url(#174d7b9fd3)"><path fill="#0d3862" d="M 747.59375 423.597656 C 747.59375 612.878906 594.273438 766.195312 404.996094 766.195312 C 215.714844 766.195312 62.398438 612.878906 62.398438 423.597656 C 62.398438 234.316406 215.714844 81 404.996094 81 C 594.273438 81 747.59375 234.316406 747.59375 423.597656 Z M 747.59375 423.597656 " fill-opacity="1" fill-rule="nonzero"/></g><path fill="#ffffff" d="M 457.566406 621.25 L 457.566406 395.734375 L 507.390625 445.695312 C 512.605469 450.773438 520.839844 450.773438 526.058594 445.695312 L 581.921875 389.832031 C 587 384.617188 587 376.242188 581.921875 371.164062 L 414.191406 203.433594 C 408.976562 198.355469 400.601562 198.355469 395.523438 203.433594 L 227.792969 371.164062 C 222.714844 376.242188 222.714844 384.617188 227.792969 389.832031 L 283.65625 445.695312 C 288.738281 450.773438 297.109375 450.773438 302.324219 445.695312 L 352.148438 395.734375 L 352.148438 621.25 C 352.148438 628.523438 358.050781 634.425781 365.328125 634.425781 L 444.386719 634.425781 C 451.664062 634.425781 457.566406 628.523438 457.566406 621.25 Z M 457.566406 621.25 " fill-opacity="1" fill-rule="nonzero"/><g clip-path="url(#dc7c447e78)"><path fill="#0d3862" d="M 291.777344 444.972656 C 294.496094 441 296.726562 436.667969 300.34375 433.363281 C 301.179688 432.601562 301.019531 431.4375 301.660156 430.554688 C 305.523438 425.242188 309.324219 419.878906 313.085938 414.496094 C 313.6875 413.636719 314.367188 413.292969 315.34375 413.351562 C 315.34375 413.355469 315.34375 413.496094 315.34375 413.496094 L 315.265625 413.347656 C 315.332031 413.148438 315.394531 412.953125 315.457031 412.757812 C 315.726562 413.050781 315.996094 413.339844 316.265625 413.628906 L 316.203125 413.636719 C 316.492188 413.101562 316.78125 412.566406 317.074219 412.035156 C 317.074219 412.035156 317.046875 412.109375 317.046875 412.109375 L 316.996094 412.171875 C 318.265625 411.339844 316.984375 411.152344 316.632812 410.730469 L 316.691406 410.769531 C 316.441406 410.769531 316.191406 410.769531 315.941406 410.769531 L 315.988281 410.796875 C 315.925781 409.953125 316.511719 409.386719 316.941406 408.800781 C 322.484375 401.226562 328.050781 393.667969 333.628906 386.117188 C 334.109375 385.464844 334.71875 384.90625 335.421875 384.40625 C 334.542969 387.476562 332.023438 389.660156 330.851562 392.558594 C 331.007812 392.664062 331.164062 392.769531 331.316406 392.875 C 338.476562 383.34375 345.632812 373.8125 352.792969 364.277344 C 352.582031 364.109375 352.367188 363.941406 352.15625 363.769531 C 346.804688 368.902344 343.679688 375.894531 337.902344 381.335938 C 340.785156 376.359375 343.84375 372.078125 347.300781 368.160156 C 350.667969 364.339844 353.429688 360.089844 356.613281 356.152344 C 358.230469 354.148438 359.804688 352.113281 361.410156 350.097656 C 361.925781 349.449219 362.402344 348.738281 363.378906 348.734375 C 363.878906 348.730469 364.363281 348.46875 364.445312 348.023438 C 365.265625 343.519531 369.296875 341.253906 371.417969 337.429688 C 372.1875 338.515625 371.25 339.40625 371.878906 340.4375 C 393.792969 313.511719 418.070312 288.796875 440.5625 262.242188 C 436.535156 262.570312 433.136719 264.441406 429.410156 264.933594 C 430.300781 264.117188 431.210938 263.332031 432.910156 262.625 C 430.460938 262.785156 428.640625 262.808594 427.320312 264.695312 C 428.167969 264.769531 428.824219 264.824219 429.476562 264.882812 C 422.050781 267.3125 414.691406 269.886719 407.070312 271.765625 C 402.582031 272.875 398.074219 274.179688 393.652344 275.65625 C 392.515625 276.03125 391.351562 276.324219 390.066406 276.695312 C 390.394531 275.863281 391.671875 275.53125 391.058594 274.660156 C 390.617188 274.03125 389.8125 274.59375 389.179688 274.78125 C 385.5 275.863281 381.824219 276.96875 378.140625 278.03125 C 371.972656 279.8125 365.800781 281.582031 359.628906 283.332031 C 353.535156 285.0625 347.421875 286.714844 341.351562 288.503906 C 337.960938 289.503906 334.589844 290.605469 331.289062 291.871094 C 329.574219 292.527344 329.351562 291.34375 329.023438 290.398438 C 328.574219 289.097656 329.824219 289.226562 330.507812 289.027344 C 333.839844 288.054688 337.1875 287.140625 340.53125 286.199219 C 341.222656 286.003906 341.96875 285.894531 342.722656 285.011719 C 339.269531 285.160156 336.375 286.160156 333.453125 287.058594 C 332.515625 287.347656 331.578125 287.882812 330.921875 286.261719 C 330.347656 284.839844 330.683594 284.375 331.925781 283.984375 C 333.945312 283.351562 335.9375 282.628906 337.96875 282.042969 C 339.09375 281.722656 339.804688 281.109375 340.117188 280.003906 C 343.089844 281.070312 345.328125 278.785156 347.90625 278.0625 C 345.308594 278.710938 342.714844 279.359375 340.121094 280.007812 C 336.480469 281.148438 332.851562 282.3125 329.203125 283.421875 C 328.335938 283.683594 327.410156 283.890625 326.929688 282.679688 C 326.695312 282.097656 326.078125 282.179688 325.542969 282.152344 C 322.617188 281.992188 321.714844 280.253906 323.246094 277.6875 C 323.46875 277.3125 323.578125 276.9375 323.390625 276.640625 C 322.078125 274.605469 321.496094 272.109375 318.960938 270.871094 C 316.601562 269.726562 316.007812 267.898438 316.839844 266.023438 C 316.246094 265.398438 314.492188 266.011719 314.78125 264.972656 C 315.035156 264.074219 315.191406 262.628906 316.253906 262.179688 C 319.140625 260.953125 321.203125 258.515625 324.339844 257.460938 C 327.945312 256.25 331.46875 254.714844 335.164062 253.722656 C 346.628906 250.644531 358.113281 247.636719 369.507812 244.285156 C 380.589844 241.027344 391.550781 237.359375 402.679688 234.285156 C 407.230469 233.03125 411.550781 231.199219 416.082031 229.960938 C 419.105469 229.132812 421.472656 226.664062 424.710938 226.335938 C 428.210938 225.976562 431.457031 224.5625 434.855469 223.78125 C 442.917969 221.921875 450.765625 219.125 458.695312 216.6875 C 469.167969 213.46875 479.632812 210.230469 490.105469 207.007812 C 490.535156 206.875 491.097656 206.601562 491.414062 206.761719 C 493.980469 208.046875 495.316406 206.117188 496.789062 204.722656 C 500.019531 201.664062 503.257812 198.601562 506.335938 195.398438 C 507.511719 194.171875 507.875 195.203125 508.597656 195.722656 C 509.828125 196.609375 508.875 197.097656 508.292969 197.625 C 505.609375 200.039062 502.90625 202.4375 499.90625 205.117188 C 501.550781 205.230469 502.375 204.46875 503.179688 203.785156 C 504.445312 202.710938 505.722656 201.625 506.859375 200.414062 C 507.902344 199.304688 508.507812 199.539062 509.605469 200.488281 C 510.972656 201.671875 509.824219 202.148438 509.304688 202.824219 C 508.722656 203.574219 508.042969 204.246094 507.25 205.125 C 509.210938 205.203125 509.929688 203.777344 510.996094 202.921875 C 511.972656 202.140625 512.703125 200.558594 514.335938 202.015625 C 514.675781 202.316406 515.171875 201.933594 515.59375 201.765625 C 517.554688 200.984375 519.636719 202.394531 519.445312 204.457031 C 519.351562 205.449219 519.863281 205.75 520.425781 206.402344 C 522.328125 208.613281 525 208.933594 527.453125 209.851562 C 528.613281 210.285156 529.941406 210.769531 529.792969 212.449219 C 529.761719 212.832031 529.808594 213.027344 530.230469 212.960938 C 530.902344 212.851562 532.050781 212.089844 532.058594 213.167969 C 532.066406 214.125 532.515625 215.074219 532.058594 216.175781 C 530.625 219.628906 528.441406 222.550781 526.101562 225.390625 C 525.71875 225.855469 525.335938 226.335938 524.882812 226.726562 C 506.574219 242.550781 489.722656 259.832031 473.625 277.878906 C 457.800781 295.628906 442.050781 313.449219 426.035156 331.023438 C 405.964844 353.046875 387.453125 376.304688 369.738281 400.242188 C 364.648438 407.113281 359.6875 414.082031 354.558594 420.925781 C 354.261719 421.320312 353.792969 421.667969 353.949219 422.339844 C 354.976562 422.304688 355.746094 421.644531 356.589844 421.222656 C 378.15625 410.539062 399.65625 399.714844 421.988281 390.683594 C 453.417969 377.96875 485.007812 365.6875 517.597656 356.191406 C 520.285156 355.40625 522.882812 354.242188 525.675781 353.921875 C 537.039062 352.613281 547.84375 348.832031 558.96875 346.488281 C 559.691406 346.335938 561.210938 344.625 561.671875 347.011719 C 561.679688 347.050781 562.816406 346.957031 563.386719 346.792969 C 570.382812 344.765625 577.679688 344.355469 584.769531 342.835938 C 585.539062 342.671875 586.351562 342.339844 587.144531 342.707031 C 587.285156 343.800781 584.460938 344.011719 586.363281 345.652344 C 586.628906 345.882812 585.804688 346.261719 585.429688 346.363281 C 575.304688 349.070312 565.738281 353.71875 555.203125 355.039062 C 552.980469 355.320312 550.769531 356.042969 548.664062 356.84375 C 533.605469 362.558594 518.042969 366.757812 502.890625 372.175781 C 496.359375 374.511719 489.878906 376.980469 483.429688 379.554688 C 506.457031 371.746094 529.414062 363.710938 553.195312 358.410156 C 552.5625 359.597656 551.265625 359.386719 550.460938 360.070312 C 550.984375 361.621094 552.453125 360.972656 554.03125 361.375 C 550.113281 363.484375 546.195312 364.507812 542.820312 366.675781 C 543.039062 367.308594 543.707031 366.613281 543.902344 367.046875 C 544.101562 367.5 543.742188 367.753906 543.386719 367.886719 C 541.972656 368.410156 540.5625 368.957031 539.121094 369.40625 C 506.398438 379.617188 474.324219 391.597656 442.746094 404.917969 C 441.433594 405.472656 440.144531 406.085938 438.953125 407.070312 C 439.730469 406.820312 440.523438 406.617188 441.28125 406.320312 C 445.363281 404.703125 449.515625 403.300781 453.753906 402.152344 C 454.25 402.015625 454.71875 401.546875 455.257812 401.820312 C 459.09375 403.757812 462.792969 402.375 466.289062 401.019531 C 471.941406 398.824219 477.59375 396.578125 483.480469 395.214844 C 490.128906 393.671875 496.453125 391.179688 503.003906 389.394531 C 503.148438 389.355469 503.292969 389.292969 503.441406 389.28125 C 509.800781 388.816406 515.339844 385.507812 521.425781 384.085938 C 524.128906 383.453125 526.691406 382.339844 529.578125 382.332031 C 530.820312 382.332031 532.019531 381.222656 533.308594 380.84375 C 540.640625 378.699219 547.910156 376.339844 555.320312 374.445312 C 557.789062 373.8125 559.742188 375.0625 562.324219 375.121094 C 561.003906 376.230469 559.640625 376.328125 558.417969 376.710938 C 540.5 382.296875 522.285156 387 504.71875 393.632812 C 487.894531 399.988281 470.75 405.554688 454.332031 412.964844 C 445.457031 416.96875 436.785156 421.425781 428.097656 425.933594 C 430.707031 426.023438 432.953125 424.214844 435.515625 424.191406 C 435.574219 424.386719 435.632812 424.582031 435.695312 424.777344 C 433.007812 426.054688 430.339844 427.382812 427.628906 428.605469 C 410.449219 436.339844 393.601562 444.761719 376.769531 453.210938 C 358.175781 462.542969 339.496094 471.667969 319.863281 478.699219 C 313.613281 480.941406 307.1875 482.523438 300.789062 484.121094 C 293.71875 485.882812 286.054688 481.886719 282.328125 475.371094 C 278.804688 469.207031 279.601562 460.847656 284.21875 455.382812 C 285.71875 453.605469 287.179688 451.796875 288.644531 450.023438 C 287.949219 450.917969 288.363281 451.636719 289.054688 452.1875 C 289.433594 452.488281 289.757812 452.058594 289.882812 451.699219 C 290.945312 448.6875 292.921875 446.125 294.476562 442.796875 C 293.296875 443.75 292.539062 444.363281 291.777344 444.972656 Z M 456.53125 257.042969 C 454.210938 257.988281 431.34375 283.726562 430.773438 285.804688 C 439.90625 276.523438 447.738281 266.351562 456.53125 257.042969 Z M 424.554688 292.296875 C 418.921875 298.371094 412.984375 304.183594 408.0625 310.882812 C 414.019531 305.097656 419.171875 298.59375 424.554688 292.296875 Z M 349.59375 277.828125 C 355.679688 276.460938 361.835938 275.339844 367.585938 272.785156 C 361.398438 273.792969 355.566406 276.058594 349.59375 277.828125 Z M 409.839844 269.25 C 406.605469 269.488281 403.667969 270.890625 400.570312 271.667969 C 400.1875 271.761719 399.816406 271.945312 399.972656 272.4375 C 400.121094 272.90625 400.585938 272.910156 400.914062 272.765625 C 403.828125 271.464844 407.324219 271.738281 409.839844 269.25 Z M 400.621094 319.300781 C 396.1875 322.824219 393.023438 327.460938 389.222656 331.542969 C 389.363281 331.667969 389.507812 331.792969 389.648438 331.917969 C 393.308594 327.710938 396.964844 323.507812 400.621094 319.300781 Z M 362.839844 457.492188 C 358.808594 459.203125 354.757812 460.886719 351.03125 463.230469 C 355.335938 462.085938 358.875 459.355469 362.839844 457.492188 Z M 357.472656 281.605469 C 354.363281 281.648438 351.230469 281.640625 348.472656 283.410156 C 351.734375 284.171875 354.441406 282.066406 357.472656 281.605469 Z M 376.652344 270.101562 C 374.085938 270.414062 371.675781 271.277344 369.332031 272.355469 C 371.867188 271.9375 374.394531 271.503906 376.652344 270.101562 Z M 310.019531 480.574219 C 308.585938 479.207031 308.582031 479.207031 306.078125 481.667969 C 307.582031 481.578125 308.824219 481.257812 310.019531 480.574219 Z M 379.15625 269.648438 C 381.507812 269.503906 382.964844 268.6875 384.449219 267.957031 C 382.851562 268.371094 381.121094 268.394531 379.15625 269.648438 Z M 379.15625 269.648438 " fill-opacity="1" fill-rule="nonzero"/></g><path fill="#0d3862" d="M 395.75 310.34375 C 394.425781 312.210938 393.367188 314.328125 391.261719 315.5625 C 392.324219 313.480469 393.917969 311.824219 395.75 310.34375 Z M 395.75 310.34375 " fill-opacity="1" fill-rule="nonzero"/><path fill="#0d3862" d="M 316.691406 410.773438 C 316.691406 410.773438 316.632812 410.730469 316.632812 410.730469 C 316.707031 411.035156 316.785156 411.339844 316.859375 411.640625 C 316.859375 411.640625 316.910156 411.628906 316.910156 411.628906 C 316.738281 411.800781 316.5625 411.976562 316.386719 412.148438 C 316.386719 412.148438 316.398438 412.140625 316.398438 412.140625 C 316.257812 412.128906 316.125 412.136719 315.988281 412.164062 C 315.828125 412.160156 315.671875 412.15625 315.511719 412.152344 C 315.363281 412.21875 315.210938 412.28125 315.0625 412.34375 C 315.125 411.679688 315.195312 411.023438 315.988281 410.796875 C 315.988281 410.796875 315.941406 410.769531 315.941406 410.769531 C 316.191406 410.402344 316.441406 410.359375 316.691406 410.773438 Z M 316.691406 410.773438 " fill-opacity="1" fill-rule="nonzero"/><path fill="#0d3862" d="M 316.859375 411.640625 C 316.90625 411.820312 316.949219 411.996094 316.996094 412.171875 C 316.996094 412.171875 317.046875 412.109375 317.046875 412.109375 C 317.046875 412.109375 316.914062 412.152344 316.914062 412.152344 C 316.914062 411.976562 316.914062 411.800781 316.910156 411.628906 Z M 316.859375 411.640625 " fill-opacity="1" fill-rule="nonzero"/><path fill="#0d3862" d="M 317.074219 412.035156 C 316.847656 412.066406 316.621094 412.101562 316.398438 412.136719 C 316.398438 412.140625 316.386719 412.148438 316.386719 412.148438 C 316.5625 412.148438 316.738281 412.152344 316.914062 412.152344 C 316.914062 412.152344 317.042969 412.109375 317.046875 412.109375 C 317.046875 412.109375 317.074219 412.035156 317.074219 412.035156 Z M 317.074219 412.035156 " fill-opacity="1" fill-rule="nonzero"/><path fill="#0d3862" d="M 316.265625 413.628906 C 316.246094 413.679688 316.207031 413.226562 316.203125 413.636719 C 316.203125 413.636719 316.265625 413.628906 316.265625 413.628906 Z M 316.265625 413.628906 " fill-opacity="1" fill-rule="nonzero"/><path fill="#0d3862" d="M 315.488281 412.089844 C 315.664062 412.09375 315.84375 412.097656 316.019531 412.097656 C 315.847656 412.269531 315.675781 412.4375 315.503906 412.609375 C 315.5 412.4375 315.492188 412.265625 315.488281 412.089844 Z M 315.488281 412.089844 " fill-opacity="1" fill-rule="nonzero"/></svg>